# xmcd CD database file
#
# Track frame offsets:
#	150
#	18625
#	34796
#	51024
#	66141
#	79132
#	92562
#	106882
#	122840
#	136315
#	152406
#	161872
#	172599
#	186623
#	198752
#	213169
#	221224
#	234922
#	250118
#	264065
#
# Disc length: 3710 seconds
#
# Revision: 0
# Processed by: cddbd v1.5.1PL0 Copyright (c) Steve Scherf et al.
# Submitted via: CDex 1.51
#
DISCID=080e7c14
DTITLE=Los alegres de Teran - Corridos famosos
DYEAR=2003
DGENRE=Country
TTITLE0=La carga blanca
TTITLE1=Los tequileros
TTITLE2=El contrabando del paso
TTITLE3=El gato
TTITLE4=Eduardo Duarte Bernal
TTITLE5=La combi anaranjada
TTITLE6=El reto de la muerte
TTITLE7=Luciana y Gabino Suárez
TTITLE8=El reten de la noria
TTITLE9=Mike García
TTITLE10=Ventura Ramos
TTITLE11=El caballo de Mariano
TTITLE12=El 25 de mayo
TTITLE13=Ernesto Elizondo
TTITLE14=Luz Arcos
TTITLE15=Noble engaño
TTITLE16=Gregorio Cortez
TTITLE17=Ramiro y Miguel
TTITLE18=La venganza de Alonso
TTITLE19=El emigrado
EXTD=YEAR: 2003
EXTT0=
EXTT1=
EXTT2=
EXTT3=
EXTT4=
EXTT5=
EXTT6=
EXTT7=
EXTT8=
EXTT9=
EXTT10=
EXTT11=
EXTT12=
EXTT13=
EXTT14=
EXTT15=
EXTT16=
EXTT17=
EXTT18=
EXTT19=
PLAYORDER=
